<?xml version="1.0" encoding="utf-8"?>
<!-- Generator: Adobe Illustrator 22.0.1, SVG Export Plug-In . SVG Version: 6.00 Build 0)  -->
<svg version="1.1" id="Layer_1" xmlns="http://www.w3.org/2000/svg" xmlns:xlink="http://www.w3.org/1999/xlink" x="0px" y="0px"
	 viewBox="0 0 5669.3 1193.8" style="enable-background:new 0 0 5669.3 1193.8;" xml:space="preserve">
<style type="text/css">
	.st0{fill:#FFFFFF;}
</style>
<path class="st0" d="M372.6,13.9H121.7v200.2H0v233.2h111.5l5.1,316.8c0,0,30.3,126.8,83.6,182.5c53.2,55.8,172.4,134.4,461.4,126.8
	c0-137,0-235.8,0-235.8l-172.4,5.1c0,0-55.8-2.5-88.6-45.6s-27.8-342.2-27.8-342.2l197.6-5.1c0,0,17.8,5.1,50.7-38
	s40.5-63.4,40.5-63.4V216.6l-289-2.5V13.9z"/>
<path class="st0" d="M1237,216.6h-220.5c0,0-124.2,12.7-202.7,114.1C735.1,432,712.4,465.6,712.4,543.9s0,530,0,530l262.4-10.7
	V558.8c0,0-6.3-45.6,31.7-76.1c6.3-5.1,12-9.3,17.5-13.1c20.8-14.7,45.8-22.2,71.4-21.5l141.9,4.2V216.6H1237z"/>
<path class="st0" d="M1297.8,216.6v539.8c0,0,2.5,317.8,372.6,317.3s395.4-319.8,395.4-319.8V216.6h-245.9l-5.1,524.8
	c0,0,5.1,121.7-133.1,121.7s-125.4-119.2-125.4-119.2V328.1c0,0,12.7-53.2-35.4-83.6c-48.1-30.3-65.9-28-65.9-28H1297.8z"/>
<path class="st0" d="M2937.9,720.9c0,0,65.6-519.8-416.6-527.6c0,0-421.2,33.6-410.2,455.1c11,421.7,410.2,425.4,410.2,425.4
	s253.6,11.7,380.5-218.3c-133.1-34.4-227-65.8-227-65.8s-39.2,76.8-139.3,75.1c-100.2-1.5-173.7-56.4-172.2-144.1
	C2411.6,723.9,2937.9,720.9,2937.9,720.9z M2359.9,551.7c3.1-128.3,165.9-144.1,165.9-144.1c154.9,6.3,164.4,144.1,164.4,144.1
	h-164.4C2525.8,551.7,2525.8,551.7,2359.9,551.7z"/>
<path class="st0" d="M3252.5,30.3L3117,717.6h884.3c0,0,73.9,14.4,71.9,102.5c-2,88.1-43.1,108.8-78,112.9
	c-34.9,4.1-740.7,0-740.7,0s-51.4-2-86.1,16.4c-34.9,18.5-170.3,238-170.3,238h1060.7c0,0,258.5-63.6,268.8-342.6
	c34.9,119,143.6,332.4,412.4,342.6c268.8,10.2,652.4,0,652.4,0l-240-252.4l-350.9-2c0,0-244.1-26.3-225.6-321.9
	c18.5-295.6,459.5-318.3,459.5-318.3l586.8,2l47.1-264.6H4984c0,0-318,18.5-488.3,219.5c-170.3,201-172.4,346.8-172.4,346.8
	s-2-39-63.6-84.1c-61.5-45.1-164.1-43.1-164.1-43.1l-662.7-2l37-188.8l738.7,2c0,0,80,10.3,125.1-6.1
	c45.1-16.4,192.9-233.9,192.9-233.9L3252.5,30.3z"/>
<path class="st0" d="M4957.9,575.8h522.4c0,0,40.3-7.3,63.4,26.6c22.9,33.9,22.9,36.8,21.2,69.8s-75.3,451.7-75.3,451.7
	L4957.9,575.8z"/>
</svg>
